<?xml version="1.0" encoding="UTF-8" standalone="no"?>
<!-- Created with Inkscape (http://www.inkscape.org/) -->

<svg
   version="1.1"
   id="svg1"
   width="500"
   height="500"
   viewBox="0 0 500 500"
   xmlns="http://www.w3.org/2000/svg"
   xmlns:svg="http://www.w3.org/2000/svg">
  <defs
     id="defs1">
    <mask
       maskUnits="userSpaceOnUse"
       id="mask108">
      <ellipse
         style="display:inline;opacity:1;fill:#ffffff;fill-opacity:1;stroke:none;stroke-width:1.17326;stroke-dasharray:none;stroke-opacity:1"
         id="ellipse108"
         cx="250.8826"
         cy="255.29681"
         rx="173.8726"
         ry="176.4101" />
    </mask>
    <mask
       maskUnits="userSpaceOnUse"
       id="mask109">
      <ellipse
         style="display:inline;opacity:1;fill:#ffffff;fill-opacity:1;stroke:none;stroke-width:1.17326;stroke-dasharray:none;stroke-opacity:1"
         id="ellipse109"
         cx="250.8826"
         cy="255.29681"
         rx="173.8726"
         ry="176.4101" />
    </mask>
    <mask
       maskUnits="userSpaceOnUse"
       id="mask110">
      <ellipse
         style="display:inline;opacity:1;fill:#ffffff;fill-opacity:1;stroke:none;stroke-width:1.17326;stroke-dasharray:none;stroke-opacity:1"
         id="ellipse110"
         cx="250.8826"
         cy="255.29681"
         rx="173.8726"
         ry="176.4101" />
    </mask>
    <mask
       maskUnits="userSpaceOnUse"
       id="mask111">
      <ellipse
         style="display:inline;opacity:1;fill:#ffffff;fill-opacity:1;stroke:none;stroke-width:1.17326;stroke-dasharray:none;stroke-opacity:1"
         id="ellipse111"
         cx="250.8826"
         cy="255.29681"
         rx="173.8726"
         ry="176.4101" />
    </mask>
    <mask
       maskUnits="userSpaceOnUse"
       id="mask112">
      <ellipse
         style="display:inline;opacity:1;fill:#ffffff;fill-opacity:1;stroke:none;stroke-width:1.17326;stroke-dasharray:none;stroke-opacity:1"
         id="ellipse112"
         cx="250.8826"
         cy="255.29681"
         rx="173.8726"
         ry="176.4101" />
    </mask>
    <mask
       maskUnits="userSpaceOnUse"
       id="mask113">
      <ellipse
         style="display:inline;opacity:1;fill:#ffffff;fill-opacity:1;stroke:none;stroke-width:1.17326;stroke-dasharray:none;stroke-opacity:1"
         id="ellipse113"
         cx="250.8826"
         cy="255.29681"
         rx="173.8726"
         ry="176.4101" />
    </mask>
    <mask
       maskUnits="userSpaceOnUse"
       id="mask114">
      <ellipse
         style="display:inline;opacity:1;fill:#ffffff;fill-opacity:1;stroke:none;stroke-width:1.17326;stroke-dasharray:none;stroke-opacity:1"
         id="ellipse114"
         cx="250.8826"
         cy="255.29681"
         rx="173.8726"
         ry="176.4101" />
    </mask>
    <mask
       maskUnits="userSpaceOnUse"
       id="mask115">
      <ellipse
         style="display:inline;opacity:1;fill:#ffffff;fill-opacity:1;stroke:none;stroke-width:1.17326;stroke-dasharray:none;stroke-opacity:1"
         id="ellipse115"
         cx="250.8826"
         cy="255.29681"
         rx="173.8726"
         ry="176.4101" />
    </mask>
    <mask
       maskUnits="userSpaceOnUse"
       id="mask116">
      <ellipse
         style="display:inline;opacity:1;fill:#ffffff;fill-opacity:1;stroke:none;stroke-width:1.17326;stroke-dasharray:none;stroke-opacity:1"
         id="ellipse116"
         cx="250.8826"
         cy="255.29681"
         rx="173.8726"
         ry="176.4101" />
    </mask>
    <mask
       maskUnits="userSpaceOnUse"
       id="mask117">
      <ellipse
         style="display:inline;opacity:1;fill:#ffffff;fill-opacity:1;stroke:none;stroke-width:1.17326;stroke-dasharray:none;stroke-opacity:1"
         id="ellipse117"
         cx="250.8826"
         cy="255.29681"
         rx="173.8726"
         ry="176.4101" />
    </mask>
  </defs>
  <g
     id="layer11"
     style="display:inline;opacity:0.913;mix-blend-mode:normal"
     mask="url(#mask117)">
    <ellipse
       style="display:inline;opacity:1;fill:#fefaea;fill-opacity:1;stroke:none;stroke-width:1.17578;stroke-dasharray:none;stroke-opacity:1"
       id="path58"
       cx="249.40576"
       cy="250.31644"
       rx="179.79343"
       ry="171.3351" />
    <path
       style="fill:#c1dbda;fill-opacity:1;stroke:none;stroke-width:1.03171;stroke-dasharray:none;stroke-opacity:1"
       d="m 68.712612,242.51636 c 19.312498,-0.55339 30.038795,4.27094 42.914048,7.74933 13.29367,-6.7659 26.98001,-12.99074 57.08297,3.40497 17.97303,-11.69893 51.92428,-8.69782 84.14688,1.12263 31.3987,-7.74951 39.70954,-20.07078 76.22907,-3.67636 18.20971,-6.33083 36.61927,-11.25354 57.08297,-1.70248 13.77203,-1.60223 36.2299,-14.74808 45.92857,-5.82651 -0.52377,13.30537 0.33255,41.34234 -5.05979,53.94403 -16.39821,-2.00835 -26.96178,-9.9297 -39.9627,-1.29911 -23.81112,-3.10439 -31.36608,2.24492 -49.53806,7.61713 l -173.42571,9.58441 c -12.82905,-6.15793 -20.34928,-23.86917 -50.67204,-19.75523 -12.71433,-7.89 -22.812921,-10.20164 -40.101999,-9.49589 z"
       id="path59" />
    <path
       style="fill:#aacddb;fill-opacity:1;stroke:none;stroke-width:1.06884;stroke-dasharray:none;stroke-opacity:1"
       d="M 89.858412,327.32306 75.161659,281.67921 c 22.48657,-3.43954 31.465641,2.35442 45.229301,9.58941 24.25909,0.6748 41.141,1.79091 57.8084,9.88596 l 156.72639,1.45693 c 16.64042,-6.60855 30.4691,-16.8818 49.24799,-8.82107 12.39858,-7.74779 23.64027,-1.91499 39.20812,-0.74375 -1.53876,16.1009 -6.73815,21.17296 -14.97431,37.27386 -7.55833,7.66836 -14.11643,4.91502 -21.67475,4.53596 -27.91993,-14.8696 -42.96592,-4.09144 -57.94719,2.65887 l -160.40455,-0.44315 c -19.41424,-10.76146 -37.96493,-8.76422 -56.26757,-3.102 z"
       id="path60" />
    <path
       style="fill:#6aa4b8;fill-opacity:1;stroke:none;stroke-width:1.05118;stroke-dasharray:none;stroke-opacity:1"
       d="m 406.85294,346.24027 11.59493,-18.12338 c -56.85122,-9.47989 -114.44143,-2.042 -173.22078,2.32329 -37.46058,-2.74897 -51.31385,6.85685 -87.99353,1.32994 -20.44685,-11.17374 -42.17376,-1.88695 -55.35356,-0.32933 -7.842305,-4.91964 -12.60009,-7.31939 -21.723695,-6.07286 l 14.525233,21.314 z"
       id="path61" />
    <path
       style="fill:#e49f8a;fill-opacity:1;stroke:none;stroke-width:1.22462;stroke-dasharray:none;stroke-opacity:1"
       d="m 77.724034,336.97738 c 20.691763,21.8462 36.535516,47.91999 65.726826,62.35436 112.82192,92.36222 216.03649,29.98336 280.278,-63.77151 z"
       id="path62" />
  </g>
  <g
     id="layer6"
     style="display:inline;opacity:1"
     mask="url(#mask116)">
    <path
       style="fill:#c1dbda;fill-opacity:1;stroke:#4f5e79;stroke-width:4;stroke-dasharray:none;stroke-opacity:1"
       d="m 185.68509,373.22848 c -3.14085,-6.35155 -2.45993,-8.87653 -3.33131,-16.22796 -2.91447,-24.58804 6.9972,-50.06969 11.20696,-58.47517 5.59059,-11.16257 12.78248,-21.49058 20.23917,-29.5411 7.45668,-8.05053 18.09352,-16.68632 24.92398,-18.01959 17.59832,-3.43511 17.63953,-1.62648 23.4052,-0.0601 12.79199,8.71789 24.4247,18.74777 33.82915,30.40899 9.40446,11.66121 16.58066,24.95377 20.45964,40.19704 5.63396,22.13981 -3.9848,52.13211 -3.82888,52.18138 31.468,9.94333 40.03223,39.21255 19.22065,46.50823 -13.91858,4.87929 -69.48831,-6.6772 -78.5856,-7.62203 -6.24407,-0.64849 -46.18712,12.97629 -66.60705,10.17715 -32.82038,-4.49897 -22.94158,-36.69655 -0.93191,-49.52683 z"
       id="path50" />
  </g>
  <g
     id="layer8"
     style="display:inline;fill:#f4c3b0;fill-opacity:1"
     mask="url(#mask115)">
    <path
       style="fill:#f4c3b0;fill-opacity:1;stroke:none;stroke-width:1;stroke-dasharray:none;stroke-opacity:1"
       d="m 224.09374,386.74243 c -1.0142,-5.23555 1.82824,-11.63337 12.31579,-16.86728 4.16739,-0.3858 8.46144,-0.0116 12.98512,1.74028 4.58848,-1.01219 8.93555,-2.99005 14.18992,-1.33868 10.25744,4.4026 10.31739,10.47768 13.11899,15.52861 -17.97109,3.29972 -36.06291,3.33407 -52.60982,0.93707 z"
       id="path55" />
  </g>
  <g
     id="layer9"
     style="display:inline"
     mask="url(#mask114)">
    <path
       style="display:inline;fill:#fff8ed;fill-opacity:1;stroke:none;stroke-width:1;stroke-dasharray:none;stroke-opacity:1"
       d="m 223.45703,378.4479 c 3.31493,-5.06342 13.96956,-14.33103 26.43379,-7.99955 11.35815,-6.08994 22.50708,1.75143 26.40464,7.28741 -4.87967,5.45694 -19.53121,4.7746 -26.18588,0.2666 -7.93872,6.33982 -20.09419,2.3879 -26.65255,0.44554 z"
       id="path56" />
  </g>
  <g
     id="layer7"
     style="display:inline"
     mask="url(#mask113)">
    <path
       style="fill:#8fa3bb;fill-opacity:1;stroke:none;stroke-width:1;stroke-dasharray:none;stroke-opacity:1"
       d="m 289.19525,338.08796 c -7.62096,11.76237 -22.26206,20.86064 -43.69137,19.50508 -20.16362,-0.64179 -26.22312,-17.72831 -36.40947,-28.34738 -0.75555,6.76176 -0.42485,13.78359 2.08054,20.54535 9.10332,6.71602 18.15549,13.55995 28.60744,16.90439 l 18.98494,2.60068 c 9.43159,-4.56044 20.34999,-10.38195 29.12758,-16.9044 z"
       id="path51" />
    <path
       style="fill:#8fa3bb;fill-opacity:1;stroke:none;stroke-width:1;stroke-dasharray:none;stroke-opacity:1"
       d="m 312.63896,365.98879 c -10.61433,6.46345 -21.2439,14.17604 -35.14676,17.35095 l 3.12081,15.60406 c 17.01478,-8.22456 29.6346,-19.37008 32.02595,-32.95501 z"
       id="path52" />
    <path
       style="fill:#8fa3bb;fill-opacity:1;stroke:none;stroke-width:1;stroke-dasharray:none;stroke-opacity:1"
       d="m 225.21859,379.43873 c -13.29352,-0.39102 -29.0667,-11.54777 -40.50813,-18.1124 0.28747,3.4798 0.19405,6.86438 2.56742,10.86566 7.67693,13.39772 26.68765,20.62172 35.34004,22.8508 z"
       id="path53" />
    <path
       style="fill:#8fa3bb;fill-opacity:1;stroke:none;stroke-width:1;stroke-dasharray:none;stroke-opacity:1"
       d="m 275.93179,388.28102 c -10.27068,16.64144 -68.30285,20.22741 -97.50411,29.85735 1.03833,3.30575 9.94576,3.19107 16.14743,4.56058 18.61519,-3.17347 37.54762,-6.53501 55.87005,-11.01184 20.79577,4.14556 52.38002,6.60942 71.63745,8.53903 l 8.24834,-1.54675 c -0.23259,-5.32576 -42.08985,-4.73497 -58.82031,-10.11309 l 10.66278,-10.4027 z"
       id="path54" />
  </g>
  <g
     id="layer1"
     style="display:inline"
     mask="url(#mask112)">
    <path
       style="fill:none;fill-opacity:1;stroke:#4f5e79;stroke-width:4;stroke-dasharray:none;stroke-opacity:1"
       d="m 223.66239,388.47859 c 17.97427,2.52718 35.94853,1.5157 53.9228,-0.93778"
       id="path26" />
    <path
       style="fill:none;fill-opacity:1;stroke:#4f5e79;stroke-width:4;stroke-dasharray:none;stroke-opacity:1"
       d="m 225.36151,256.39181 17.86593,34.47812"
       id="path18" />
    <path
       style="fill:none;fill-opacity:1;stroke:#4f5e79;stroke-width:4;stroke-dasharray:none;stroke-opacity:1"
       d="m 210.62995,351.99022 43.7844,-80.81752"
       id="path20" />
    <path
       style="fill:none;fill-opacity:1;stroke:#4f5e79;stroke-width:4;stroke-dasharray:none;stroke-opacity:1"
       d="m 201.54026,346.97523 c 12.04766,6.99328 31.03523,18.62906 41.47953,20.81227"
       id="path21" />
    <path
       style="fill:none;fill-opacity:1;stroke:#4f5e79;stroke-width:4;stroke-dasharray:none;stroke-opacity:1"
       d="m 219.42864,356.65438 54.31204,-97.14021"
       id="path22" />
    <path
       style="fill:none;fill-opacity:1;stroke:#4f5e79;stroke-width:4;stroke-dasharray:none;stroke-opacity:1"
       d="m 313.2173,371.61527 c -3.79029,9.67981 -23.51392,24.46803 -33.31768,24.48307 -4.27169,-30.18647 -17.97888,-30.74425 -30.27044,-26.55562 -16.84283,-7.5147 -29.38056,8.62583 -27.08861,24.44812 -7.68243,2.1129 -28.57116,-15.66644 -37.05776,-20.79106"
       id="path23" />
    <path
       style="fill:none;fill-opacity:1;stroke:#4f5e79;stroke-width:4;stroke-dasharray:none;stroke-opacity:1"
       d="m 291.4968,303.72086 c 1.25582,14.73156 -0.14774,34.16468 -2.19406,48.89624 m -79.61401,-48.73952 c -2.69425,14.73156 -2.84763,34.16468 0.31343,48.89624"
       id="path24" />
    <path
       style="fill:none;fill-opacity:1;stroke:#4f5e79;stroke-width:4;stroke-dasharray:none;stroke-opacity:1"
       d="m 261.3604,367.67808 c 13.07969,-5.16633 27.72281,-12.58284 36.71859,-21.0163"
       id="path25" />
    <path
       style="fill:none;fill-opacity:1;stroke:#4f5e79;stroke-width:4;stroke-dasharray:none;stroke-opacity:1"
       d="m 292.34268,201.23512 c 7.56827,-13.7489 -4.0443,-28.13181 -12.87287,-40.24103 3.15588,8.58271 1.42757,17.16541 -2.25296,25.74812 l -9.98338,-11.9133 c -6.22246,3.11123 -8.89857,10.41133 -15.12103,13.52256 -6.98185,-3.21012 -11.13888,-9.24505 -13.83962,-16.73628 -4.39043,-1.32907 -7.32021,9.0271 -10.94295,13.83962 -10.1384,-7.95816 -5.30597,-16.98566 -4.18407,-25.74812 -14.82218,12.76678 -14.28276,27.7949 -15.13062,40.56168"
       id="path27" />
  </g>
  <g
     id="layer5"
     style="display:inline"
     mask="url(#mask111)">
    <path
       style="display:inline;fill:#fff8ed;fill-opacity:1;stroke:#4f5e79;stroke-width:4;stroke-dasharray:none;stroke-opacity:1"
       d="m 240.80111,257.33574 c -3.36575,-8.78165 -1.78624,-17.2678 -2.98733,-22.32765 -1.75248,-7.38276 13.51799,3.77145 24.15516,-0.98816 1.69465,3.53948 0.55627,14.00432 0.97206,19.75231 -11.58759,21.17947 -10.03642,35.14295 -22.13989,3.5635 z"
       id="path49" />
  </g>
  <g
     id="layer10"
     mask="url(#mask110)">
    <path
       style="fill:#f4c3b0;fill-opacity:1;stroke:none;stroke-width:1;stroke-dasharray:none;stroke-opacity:1"
       d="m 240.51069,245.97222 c 0.20482,2.22159 0.13925,3.34476 0.73035,5.56635 8.41552,2.53751 12.21879,2.58955 19.64378,-0.19147 l 0.0533,-5.67511 z"
       id="path57" />
  </g>
  <g
     id="layer4"
     style="display:inline"
     mask="url(#mask109)">
    <path
       style="display:inline;fill:#fff8ed;fill-opacity:1;stroke:#4f5e79;stroke-width:4;stroke-dasharray:none;stroke-opacity:1"
       d="m 244.14013,244.82841 c -10.89163,-1.81101 -20.50039,-9.45025 -26.2498,-20.86933 -2.18303,-4.33577 -4.53988,-12.40883 -5.4246,-18.58112 l -0.22269,-1.55368 c 0.94572,-9.03081 3.83094,-28.5324 7.2572,-25.07772 1.46151,1.47363 10.82549,19.33247 12.53881,17.61919 1.44214,-1.44216 1.46749,-14.80406 2.06203,-15.89941 0.61034,-1.1245 10.76631,24.05925 14.43286,24.05925 0.97589,0 7.25429,-6.76781 11.1603,-12.03026 7.5379,-10.15558 7.24635,-9.80928 8.25871,-9.80928 5.6688,0.90826 -1.93291,14.32364 2.10691,15.10164 2.14382,0.41288 11.30288,-13.17718 11.44391,-13.41245 4.34144,-7.24254 5.60746,-0.62888 7.54873,22.13562 -2.17465,19.78659 -14.9621,34.84971 -32.39157,38.15603 -3.25952,0.61832 -9.30456,0.6963 -12.5208,0.16152 z"
       id="path44" />
    <path
       style="display:inline;fill:#fff8ed;fill-opacity:1;stroke:#4f5e79;stroke-width:4;stroke-dasharray:none;stroke-opacity:1"
       d="m 203.04795,216.78183 c -1.84501,-3.58948 -9.77546,-26.86171 7.89652,-16.69728 1.50345,0.86474 1.38342,2.11984 1.26467,2.42929 -0.53751,1.40073 2.61772,12.61075 4.50606,17.84089 2.88935,8.00251 -9.43029,4.67015 -13.66725,-3.5729 z"
       id="path46" />
    <path
       style="display:inline;fill:#fff8ed;fill-opacity:1;stroke:#4f5e79;stroke-width:4;stroke-dasharray:none;stroke-opacity:1"
       d="m 285.39573,222.17835 c 6.44938,-15.00531 1.27558,-19.10328 7.21009,-22.89744 6.73923,-6.76819 8.70983,0.99027 9.79465,7.06232 0.99437,6.40893 -2.20416,13.0565 -7.60017,15.79554 -3.06667,1.5396 -6.36236,1.3538 -9.40457,0.0396 z"
       id="path45" />
    <path
       style="display:inline;fill:none;fill-opacity:1;stroke:#4f5e79;stroke-width:4.463;stroke-dasharray:none;stroke-opacity:1"
       d="m 261.26076,208.43894 c 6.42117,7.17451 13.7237,4.51929 18.68987,-0.91618"
       id="path11" />
    <path
       style="display:inline;fill:none;fill-opacity:1;stroke:#4f5e79;stroke-width:4.463;stroke-dasharray:none;stroke-opacity:1"
       d="m 223.69775,207.88923 c 4.97427,7.01885 12.25147,6.40747 17.22401,0.73294"
       id="path10" />
  </g>
  <g
     id="layer3"
     style="display:inline"
     mask="url(#mask108)">
    <path
       style="display:inline;fill:#c89f73;fill-opacity:1;stroke:#c89f73;stroke-width:1;stroke-dasharray:none;stroke-opacity:1"
       d="m 204.62267,141.37674 c 2.90394,-0.0623 -21.51839,18.6049 -18.41642,11.85464 3.6541,-7.95177 20.87714,-18.56161 19.82595,-13.80278 -1.94762,8.81703 -21.50248,33.0439 -18.23961,40.47194 4.86346,-2.01876 6.4182,-5.69189 9.42457,-8.63919 0.81866,-1.39321 -9.69926,25.18848 16.94818,33.01388 0.0182,-8.01765 0.98054,-13.92182 4.27469,-19.56956 5.74598,3.85724 8.57263,12.68173 13.49445,15.57797 0.43074,1.0422 3.66677,-6.11188 3.18384,-15.94178 1.64462,4.90387 3.25181,16.52078 12.59015,24.60352 9.70504,-6.98964 19.01982,-25.62017 20.58684,-23.41884 -1.49142,7.67881 -2.15099,8.62981 -0.14807,13.81365 -0.87793,3.98702 13.37444,-7.57019 15.25287,-12.06272 4.70634,-2.08841 0.37656,18.04956 1.56645,15.13044 2.56491,-2.21023 10.38729,-8.83931 14.54647,-5.03264 14.95388,-14.53086 -1.491,-27.53729 5.99493,-24.80506 1.40065,1.33372 6.10017,8.83286 9.02901,8.77096 4.5653,-0.0965 -8.4014,-34.23113 -16.83536,-41.95279 -3.50221,-3.20642 12.4593,12.07336 18.49625,14.25552 10.1779,3.67898 -23.66744,-24.80448 -16.13038,-18.33099"
       id="path8" />
    <path
       style="fill:#f1cc8f;fill-opacity:1;stroke:none;stroke-width:0.168556;stroke-dasharray:none;stroke-opacity:1"
       d="m 206.20706,196.99775 c -6.6254,-5.32988 -8.69557,-14.77739 -7.08593,-23.91855 0.29723,-9.03918 -6.42748,0.59989 -9.39219,3.034 -6.11716,0 20.41828,-30.89688 15.13294,-37.08222 -1.25685,-1.47087 -18.12967,13.05233 -18.12967,12.03885 3.66884,-6.19793 7.66263,-12.30551 13.25574,-16.93241 2.23103,-1.72778 3.40471,-2.60486 5.87531,-3.35343 15.78077,-4.7814 16.05692,-5.87074 14.0909,-8.76776 17.81623,-5.29392 16.21755,2.09064 21.67655,-1.46756 1.21823,-0.79406 7.08619,-3.3942 10.60628,-4.00993 7.25149,-1.2684 -1.90839,0.80181 7.73857,2.84205 4.99829,1.01308 14.73109,3.23359 24.50908,5.59168 10.36483,2.49959 28.50424,21.0169 28.43123,21.08992 -0.0979,0.0979 -11.50589,-8.30878 -14.65747,-9.73976 -6.04556,-1.36324 -1.19665,5.48603 0.59025,7.52621 8.22352,11.5021 14.89851,34.89253 14.1616,34.11847 -18.52337,-19.45714 -4.18708,7.37001 -18.68439,19.83238 -0.63129,0.54267 3.73334,-6.48191 -2.8318,-19.52134 -3.31833,-6.59076 -13.697,-21.44869 -12.12932,-16.47653 3.7302,10.34881 -2.01851,23.99147 -2.30215,23.87871 -15.00817,-19.92399 -11.35623,-6.70201 -24.92159,2.07341 -11.83566,-5.99771 -12.10847,-16.43368 -14.18553,-16.78462 -6.02593,0.1828 -9.10683,13.5717 -10.78035,13.5717 -10.77484,-7.05456 -2.26965,-18.38253 -3.57118,-25.88711 -0.16069,-0.1607 -4.80796,4.49989 -6.11976,6.13731 -12.25053,15.29141 -8.45931,33.23425 -9.86619,33.23425 -0.0734,0 -0.70831,-0.46246 -1.41093,-1.02768 z"
       id="path43" />
    <path
       style="fill:#c89f73;fill-opacity:1;stroke:none;stroke-width:4.463;stroke-dasharray:none;stroke-opacity:1"
       d="m 290.99582,127.78219 c 0.80314,0.9606 -33.2206,-8.0652 -39.47684,-9.09892 -5.05867,-3.25245 30.96211,-8.01861 39.47684,9.09892 z"
       id="path35-9" />
    <path
       style="fill:#c89f73;fill-opacity:1;stroke:none;stroke-width:4.463;stroke-dasharray:none;stroke-opacity:1"
       d="m 239.44123,122.04694 c 2.17621,0.72139 -16.63672,-6.62135 -15.18111,-8.5446 0.0766,-0.15316 10.684,-1.06481 15.18111,8.5446 z"
       id="path35-4" />
    <path
       style="fill:#c89f73;fill-opacity:1;stroke:none;stroke-width:4.463;stroke-dasharray:none;stroke-opacity:1"
       d="m 223.88574,123.08254 c 1.49374,0.28764 -7.4403,5.68054 -23.23422,9.189 -4.32557,1.54008 13.79219,-14.20854 23.23422,-9.189 z"
       id="path35" />
  </g>
</svg>
