<svg width="64" height="64" viewBox="0 0 64 64" fill="none" xmlns="http://www.w3.org/2000/svg">
<rect width="64" height="64" rx="16" fill="black"/>
<path d="M32.647 20.664L24.455 43H19.015L10.823 20.664H15.623L21.767 38.424L27.879 20.664H32.647ZM46.853 43L41.925 34.296H39.813V43H35.333V20.664H43.717C45.445 20.664 46.917 20.9733 48.133 21.592C49.349 22.1893 50.2557 23.0107 50.853 24.056C51.4717 25.08 51.781 26.232 51.781 27.512C51.781 28.984 51.3543 30.3173 50.501 31.512C49.6477 32.6853 48.3783 33.496 46.693 33.944L52.037 43H46.853ZM39.813 30.936H43.557C44.773 30.936 45.6797 30.648 46.277 30.072C46.8743 29.4747 47.173 28.6533 47.173 27.608C47.173 26.584 46.8743 25.7947 46.277 25.24C45.6797 24.664 44.773 24.376 43.557 24.376H39.813V30.936Z" fill="white"/>
</svg>
